<?xml version="1.0" encoding="UTF-8" standalone="no"?>
<!DOCTYPE svg PUBLIC "-//W3C//DTD SVG 1.1//EN"
 "http://www.w3.org/Graphics/SVG/1.1/DTD/svg11.dtd">
<!-- Generated by graphviz version 2.40.1 (20161225.0304)
 -->
<!-- Title: dependencies Pages: 1 -->
<svg width="504pt" height="355pt"
 viewBox="0.00 0.00 504.00 355.00" xmlns="http://www.w3.org/2000/svg" xmlns:xlink="http://www.w3.org/1999/xlink">
<g id="graph0" class="graph" transform="scale(1 1) rotate(0) translate(4 351)">
<title>dependencies</title>
<polygon fill="#ffffff" stroke="transparent" points="-4,4 -4,-351 500,-351 500,4 -4,4"/>
<text text-anchor="start" x="227.0091" y="-42.4" font-family="sans-serif" font-weight="bold" font-size="14.00" fill="#000000">Legend</text>
<polygon fill="#ffffb3" stroke="transparent" points="14,-10 14,-30 34,-30 34,-10 14,-10"/>
<text text-anchor="start" x="37.629" y="-15.4" font-family="sans-serif" font-size="14.00" fill="#000000"> &#160;Declarations</text>
<polygon fill="#8dd3c7" stroke="transparent" points="127,-10 127,-30 147,-30 147,-10 127,-10"/>
<text text-anchor="start" x="150.7251" y="-15.4" font-family="sans-serif" font-size="14.00" fill="#000000"> &#160;Module</text>
<polygon fill="#80b1d3" stroke="transparent" points="213,-10 213,-30 233,-30 233,-10 213,-10"/>
<text text-anchor="start" x="236.7812" y="-15.4" font-family="sans-serif" font-size="14.00" fill="#000000"> &#160;Bootstrap</text>
<polygon fill="#fdb462" stroke="transparent" points="310,-10 310,-30 330,-30 330,-10 310,-10"/>
<text text-anchor="start" x="333.6732" y="-15.4" font-family="sans-serif" font-size="14.00" fill="#000000"> &#160;Providers</text>
<polygon fill="#fb8072" stroke="transparent" points="406,-10 406,-30 426,-30 426,-10 406,-10"/>
<text text-anchor="start" x="429.7258" y="-15.4" font-family="sans-serif" font-size="14.00" fill="#000000"> &#160;Exports</text>
<g id="clust1" class="cluster">
<title>cluster_AppModule</title>
<polygon fill="none" stroke="#000000" stroke-dasharray="1,5" points="82,-214 82,-339 348,-339 348,-214 82,-214"/>
</g>
<g id="clust3" class="cluster">
<title>cluster_AppModule_imports</title>
<polygon fill="none" stroke="#000000" points="228,-222 228,-274 340,-274 340,-222 228,-222"/>
</g>
<g id="clust6" class="cluster">
<title>cluster_AppModule_providers</title>
<polygon fill="none" stroke="#000000" points="90,-222 90,-274 220,-274 220,-222 90,-222"/>
</g>
<g id="clust7" class="cluster">
<title>cluster_AuthModule</title>
<polygon fill="none" stroke="#000000" stroke-dasharray="1,5" points="98,-70 98,-198 244,-198 244,-70 98,-70"/>
</g>
<g id="clust12" class="cluster">
<title>cluster_AuthModule_providers</title>
<polygon fill="none" stroke="#000000" points="106,-78 106,-130 236,-130 236,-78 106,-78"/>
</g>
<g id="clust13" class="cluster">
<title>cluster_BooksModule</title>
<polygon fill="none" stroke="#000000" stroke-dasharray="1,5" points="252,-138 252,-206 414,-206 414,-138 252,-138"/>
</g>
<g id="clust18" class="cluster">
<title>cluster_BooksModule_providers</title>
<polygon fill="none" stroke="#000000" points="260,-146 260,-198 406,-198 406,-146 260,-146"/>
</g>
<!-- BooksModule -->
<g id="node1" class="node">
<title>BooksModule</title>
<polygon fill="#8dd3c7" stroke="#000000" points="331.8316,-266 328.8316,-270 307.8316,-270 304.8316,-266 236.1684,-266 236.1684,-230 331.8316,-230 331.8316,-266"/>
<text text-anchor="middle" x="284" y="-243.8" font-family="Times,serif" font-size="14.00" fill="#000000">BooksModule</text>
</g>
<!-- AppModule -->
<g id="node2" class="node">
<title>AppModule</title>
<polygon fill="#8dd3c7" stroke="#000000" points="260.6571,-331 257.6571,-335 236.6571,-335 233.6571,-331 177.3429,-331 177.3429,-295 260.6571,-295 260.6571,-331"/>
<text text-anchor="middle" x="219" y="-308.8" font-family="Times,serif" font-size="14.00" fill="#000000">AppModule</text>
</g>
<!-- BooksModule&#45;&gt;AppModule -->
<g id="edge1" class="edge">
<title>BooksModule&#45;&gt;AppModule</title>
<path fill="none" stroke="#000000" d="M248.5814,-266.1061C248.5814,-266.1061 248.5814,-284.991 248.5814,-284.991"/>
<polygon fill="#000000" stroke="#000000" points="245.0814,-284.9909 248.5814,-294.991 252.0814,-284.991 245.0814,-284.9909"/>
</g>
<!-- AppService -->
<g id="node3" class="node">
<title>AppService</title>
<ellipse fill="#fdb462" stroke="#000000" cx="155" cy="-248" rx="56.7406" ry="18"/>
<text text-anchor="middle" x="155" y="-243.8" font-family="Times,serif" font-size="14.00" fill="#000000">AppService</text>
</g>
<!-- AppService&#45;&gt;AppModule -->
<g id="edge2" class="edge">
<title>AppService&#45;&gt;AppModule</title>
<path fill="none" stroke="#000000" d="M194.396,-261.1537C194.396,-261.1537 194.396,-284.6938 194.396,-284.6938"/>
<polygon fill="#000000" stroke="#000000" points="190.8961,-284.6938 194.396,-294.6938 197.8961,-284.6939 190.8961,-284.6938"/>
</g>
<!-- JwtStrategy -->
<g id="node4" class="node">
<title>JwtStrategy</title>
<ellipse fill="#fdb462" stroke="#000000" cx="171" cy="-104" rx="56.7561" ry="18"/>
<text text-anchor="middle" x="171" y="-99.8" font-family="Times,serif" font-size="14.00" fill="#000000">JwtStrategy</text>
</g>
<!-- AuthModule -->
<g id="node5" class="node">
<title>AuthModule</title>
<polygon fill="#8dd3c7" stroke="#000000" points="224.5482,-190 221.5482,-194 200.5482,-194 197.5482,-190 137.4518,-190 137.4518,-154 224.5482,-154 224.5482,-190"/>
<text text-anchor="middle" x="181" y="-167.8" font-family="Times,serif" font-size="14.00" fill="#000000">AuthModule</text>
</g>
<!-- JwtStrategy&#45;&gt;AuthModule -->
<g id="edge3" class="edge">
<title>JwtStrategy&#45;&gt;AuthModule</title>
<path fill="none" stroke="#000000" d="M181,-121.8662C181,-121.8662 181,-143.5422 181,-143.5422"/>
<polygon fill="#000000" stroke="#000000" points="177.5001,-143.5421 181,-153.5422 184.5001,-143.5422 177.5001,-143.5421"/>
</g>
<!-- AuthModule&#45;&gt;BooksModule -->
<g id="edge4" class="edge">
<title>AuthModule&#45;&gt;BooksModule</title>
<path fill="none" stroke="#000000" d="M218.1968,-190.0109C218.1968,-212.4852 218.1968,-248 218.1968,-248 218.1968,-248 226.1778,-248 226.1778,-248"/>
<polygon fill="#000000" stroke="#000000" points="226.1779,-251.5001 236.1778,-248 226.1778,-244.5001 226.1779,-251.5001"/>
</g>
<!-- BooksService -->
<g id="node6" class="node">
<title>BooksService</title>
<ellipse fill="#fdb462" stroke="#000000" cx="333" cy="-172" rx="64.8467" ry="18"/>
<text text-anchor="middle" x="333" y="-167.8" font-family="Times,serif" font-size="14.00" fill="#000000">BooksService</text>
</g>
<!-- BooksService&#45;&gt;BooksModule -->
<g id="edge5" class="edge">
<title>BooksService&#45;&gt;BooksModule</title>
<path fill="none" stroke="#000000" d="M299.9962,-187.7472C299.9962,-187.7472 299.9962,-219.87 299.9962,-219.87"/>
<polygon fill="#000000" stroke="#000000" points="296.4963,-219.87 299.9962,-229.87 303.4963,-219.8701 296.4963,-219.87"/>
</g>
</g>
</svg>
