<?xml version="1.0" encoding="UTF-8" standalone="no"?>
<!DOCTYPE svg PUBLIC "-//W3C//DTD SVG 1.1//EN"
 "http://www.w3.org/Graphics/SVG/1.1/DTD/svg11.dtd">
<!-- Generated by graphviz version 2.40.1 (20161225.0304)
 -->
<!-- Title: dependencies Pages: 1 -->
<svg width="575pt" height="355pt"
 viewBox="0.00 0.00 575.00 355.00" xmlns="http://www.w3.org/2000/svg" xmlns:xlink="http://www.w3.org/1999/xlink">
<g id="graph0" class="graph" transform="scale(1 1) rotate(0) translate(4 351)">
<title>dependencies</title>
<polygon fill="#ffffff" stroke="transparent" points="-4,4 -4,-351 571,-351 571,4 -4,4"/>
<text text-anchor="start" x="262.5091" y="-42.4" font-family="sans-serif" font-weight="bold" font-size="14.00" fill="#000000">Legend</text>
<polygon fill="#ffffb3" stroke="transparent" points="49.5,-10 49.5,-30 69.5,-30 69.5,-10 49.5,-10"/>
<text text-anchor="start" x="73.129" y="-15.4" font-family="sans-serif" font-size="14.00" fill="#000000"> &#160;Declarations</text>
<polygon fill="#8dd3c7" stroke="transparent" points="162.5,-10 162.5,-30 182.5,-30 182.5,-10 162.5,-10"/>
<text text-anchor="start" x="186.2251" y="-15.4" font-family="sans-serif" font-size="14.00" fill="#000000"> &#160;Module</text>
<polygon fill="#80b1d3" stroke="transparent" points="248.5,-10 248.5,-30 268.5,-30 268.5,-10 248.5,-10"/>
<text text-anchor="start" x="272.2812" y="-15.4" font-family="sans-serif" font-size="14.00" fill="#000000"> &#160;Bootstrap</text>
<polygon fill="#fdb462" stroke="transparent" points="345.5,-10 345.5,-30 365.5,-30 365.5,-10 345.5,-10"/>
<text text-anchor="start" x="369.1732" y="-15.4" font-family="sans-serif" font-size="14.00" fill="#000000"> &#160;Providers</text>
<polygon fill="#fb8072" stroke="transparent" points="441.5,-10 441.5,-30 461.5,-30 461.5,-10 441.5,-10"/>
<text text-anchor="start" x="465.2258" y="-15.4" font-family="sans-serif" font-size="14.00" fill="#000000"> &#160;Exports</text>
<g id="clust1" class="cluster">
<title>cluster_AppModule</title>
<polygon fill="none" stroke="#000000" stroke-dasharray="1,5" points="41,-214 41,-339 307,-339 307,-214 41,-214"/>
</g>
<g id="clust3" class="cluster">
<title>cluster_AppModule_imports</title>
<polygon fill="none" stroke="#000000" points="187,-222 187,-274 299,-274 299,-222 187,-222"/>
</g>
<g id="clust6" class="cluster">
<title>cluster_AppModule_providers</title>
<polygon fill="none" stroke="#000000" points="49,-222 49,-274 179,-274 179,-222 49,-222"/>
</g>
<g id="clust7" class="cluster">
<title>cluster_AuthModule</title>
<polygon fill="none" stroke="#000000" stroke-dasharray="1,5" points="8,-70 8,-198 154,-198 154,-70 8,-70"/>
</g>
<g id="clust12" class="cluster">
<title>cluster_AuthModule_providers</title>
<polygon fill="none" stroke="#000000" points="16,-78 16,-130 146,-130 146,-78 16,-78"/>
</g>
<g id="clust13" class="cluster">
<title>cluster_BooksModule</title>
<polygon fill="none" stroke="#000000" stroke-dasharray="1,5" points="162,-138 162,-206 468,-206 468,-138 162,-138"/>
</g>
<g id="clust15" class="cluster">
<title>cluster_BooksModule_imports</title>
<polygon fill="none" stroke="#000000" points="324,-146 324,-198 460,-198 460,-146 324,-146"/>
</g>
<g id="clust18" class="cluster">
<title>cluster_BooksModule_providers</title>
<polygon fill="none" stroke="#000000" points="170,-146 170,-198 316,-198 316,-146 170,-146"/>
</g>
<g id="clust19" class="cluster">
<title>cluster_MyLoggerModule</title>
<polygon fill="none" stroke="#000000" stroke-dasharray="1,5" points="319,-214 319,-282 559,-282 559,-214 319,-214"/>
</g>
<g id="clust22" class="cluster">
<title>cluster_MyLoggerModule_exports</title>
<polygon fill="none" stroke="#000000" points="455,-222 455,-274 551,-274 551,-222 455,-222"/>
</g>
<g id="clust24" class="cluster">
<title>cluster_MyLoggerModule_providers</title>
<polygon fill="none" stroke="#000000" points="327,-222 327,-274 447,-274 447,-222 327,-222"/>
</g>
<!-- BooksModule -->
<g id="node1" class="node">
<title>BooksModule</title>
<polygon fill="#8dd3c7" stroke="#000000" points="290.8316,-266 287.8316,-270 266.8316,-270 263.8316,-266 195.1684,-266 195.1684,-230 290.8316,-230 290.8316,-266"/>
<text text-anchor="middle" x="243" y="-243.8" font-family="Times,serif" font-size="14.00" fill="#000000">BooksModule</text>
</g>
<!-- AppModule -->
<g id="node2" class="node">
<title>AppModule</title>
<polygon fill="#8dd3c7" stroke="#000000" points="219.6571,-331 216.6571,-335 195.6571,-335 192.6571,-331 136.3429,-331 136.3429,-295 219.6571,-295 219.6571,-331"/>
<text text-anchor="middle" x="178" y="-308.8" font-family="Times,serif" font-size="14.00" fill="#000000">AppModule</text>
</g>
<!-- BooksModule&#45;&gt;AppModule -->
<g id="edge1" class="edge">
<title>BooksModule&#45;&gt;AppModule</title>
<path fill="none" stroke="#000000" d="M207.5813,-266.1061C207.5813,-266.1061 207.5813,-284.991 207.5813,-284.991"/>
<polygon fill="#000000" stroke="#000000" points="204.0814,-284.9909 207.5813,-294.991 211.0814,-284.991 204.0814,-284.9909"/>
</g>
<!-- AppService -->
<g id="node3" class="node">
<title>AppService</title>
<ellipse fill="#fdb462" stroke="#000000" cx="114" cy="-248" rx="56.7406" ry="18"/>
<text text-anchor="middle" x="114" y="-243.8" font-family="Times,serif" font-size="14.00" fill="#000000">AppService</text>
</g>
<!-- AppService&#45;&gt;AppModule -->
<g id="edge2" class="edge">
<title>AppService&#45;&gt;AppModule</title>
<path fill="none" stroke="#000000" d="M153.396,-261.1537C153.396,-261.1537 153.396,-284.6938 153.396,-284.6938"/>
<polygon fill="#000000" stroke="#000000" points="149.8961,-284.6938 153.396,-294.6938 156.8961,-284.6939 149.8961,-284.6938"/>
</g>
<!-- JwtStrategy -->
<g id="node4" class="node">
<title>JwtStrategy</title>
<ellipse fill="#fdb462" stroke="#000000" cx="81" cy="-104" rx="56.7561" ry="18"/>
<text text-anchor="middle" x="81" y="-99.8" font-family="Times,serif" font-size="14.00" fill="#000000">JwtStrategy</text>
</g>
<!-- AuthModule -->
<g id="node5" class="node">
<title>AuthModule</title>
<polygon fill="#8dd3c7" stroke="#000000" points="134.5482,-190 131.5482,-194 110.5482,-194 107.5482,-190 47.4518,-190 47.4518,-154 134.5482,-154 134.5482,-190"/>
<text text-anchor="middle" x="91" y="-167.8" font-family="Times,serif" font-size="14.00" fill="#000000">AuthModule</text>
</g>
<!-- JwtStrategy&#45;&gt;AuthModule -->
<g id="edge3" class="edge">
<title>JwtStrategy&#45;&gt;AuthModule</title>
<path fill="none" stroke="#000000" d="M91,-121.8662C91,-121.8662 91,-143.5422 91,-143.5422"/>
<polygon fill="#000000" stroke="#000000" points="87.5001,-143.5421 91,-153.5422 94.5001,-143.5422 87.5001,-143.5421"/>
</g>
<!-- AuthModule&#45;&gt;BooksModule -->
<g id="edge4" class="edge">
<title>AuthModule&#45;&gt;BooksModule</title>
<path fill="none" stroke="#000000" d="M134.6925,-172C154.889,-172 174.4735,-172 174.4735,-172 174.4735,-172 174.4735,-248 174.4735,-248 174.4735,-248 185.0337,-248 185.0337,-248"/>
<polygon fill="#000000" stroke="#000000" points="185.0338,-251.5001 195.0337,-248 185.0337,-244.5001 185.0338,-251.5001"/>
</g>
<!-- MyLoggerModule -->
<g id="node6" class="node">
<title>MyLoggerModule</title>
<polygon fill="#8dd3c7" stroke="#000000" points="451.9229,-190 448.9229,-194 427.9229,-194 424.9229,-190 332.0771,-190 332.0771,-154 451.9229,-154 451.9229,-190"/>
<text text-anchor="middle" x="392" y="-167.8" font-family="Times,serif" font-size="14.00" fill="#000000">MyLoggerModule</text>
</g>
<!-- MyLoggerModule&#45;&gt;BooksModule -->
<g id="edge5" class="edge">
<title>MyLoggerModule&#45;&gt;BooksModule</title>
<path fill="none" stroke="#000000" d="M332.198,-172C324.9141,-172 319.981,-172 319.981,-172 319.981,-172 319.981,-248 319.981,-248 319.981,-248 300.8778,-248 300.8778,-248"/>
<polygon fill="#000000" stroke="#000000" points="300.8778,-244.5001 290.8778,-248 300.8778,-251.5001 300.8778,-244.5001"/>
</g>
<!-- MyLogger  -->
<g id="node8" class="node">
<title>MyLogger </title>
<polygon fill="#fb8072" stroke="#000000" points="542.8733,-266 463.1267,-266 463.1267,-230 542.8733,-230 542.8733,-266"/>
<text text-anchor="middle" x="503" y="-243.8" font-family="Times,serif" font-size="14.00" fill="#000000">MyLogger </text>
</g>
<!-- MyLoggerModule&#45;&gt;MyLogger  -->
<g id="edge7" class="edge">
<title>MyLoggerModule&#45;&gt;MyLogger </title>
<path fill="none" stroke="#000000" stroke-dasharray="5,2" d="M445.5232,-190.0109C445.5232,-212.4852 445.5232,-248 445.5232,-248 445.5232,-248 453.0805,-248 453.0805,-248"/>
<polygon fill="#000000" stroke="#000000" points="453.0805,-251.5001 463.0805,-248 453.0804,-244.5001 453.0805,-251.5001"/>
</g>
<!-- BooksService -->
<g id="node7" class="node">
<title>BooksService</title>
<ellipse fill="#fdb462" stroke="#000000" cx="243" cy="-172" rx="64.8467" ry="18"/>
<text text-anchor="middle" x="243" y="-167.8" font-family="Times,serif" font-size="14.00" fill="#000000">BooksService</text>
</g>
<!-- BooksService&#45;&gt;BooksModule -->
<g id="edge6" class="edge">
<title>BooksService&#45;&gt;BooksModule</title>
<path fill="none" stroke="#000000" d="M243,-190.0109C243,-190.0109 243,-219.855 243,-219.855"/>
<polygon fill="#000000" stroke="#000000" points="239.5001,-219.8549 243,-229.855 246.5001,-219.855 239.5001,-219.8549"/>
</g>
<!-- MyLogger -->
<g id="node9" class="node">
<title>MyLogger</title>
<ellipse fill="#fdb462" stroke="#000000" cx="387" cy="-248" rx="52.1713" ry="18"/>
<text text-anchor="middle" x="387" y="-243.8" font-family="Times,serif" font-size="14.00" fill="#000000">MyLogger</text>
</g>
<!-- MyLogger&#45;&gt;MyLoggerModule -->
<g id="edge8" class="edge">
<title>MyLogger&#45;&gt;MyLoggerModule</title>
<path fill="none" stroke="#000000" d="M387,-229.9891C387,-229.9891 387,-200.145 387,-200.145"/>
<polygon fill="#000000" stroke="#000000" points="390.5001,-200.145 387,-190.145 383.5001,-200.1451 390.5001,-200.145"/>
</g>
</g>
</svg>
