<?xml version="1.0" encoding="UTF-8" standalone="no"?>
<!DOCTYPE svg PUBLIC "-//W3C//DTD SVG 1.1//EN"
 "http://www.w3.org/Graphics/SVG/1.1/DTD/svg11.dtd">
<!-- Generated by graphviz version 2.40.1 (20161225.0304)
 -->
<!-- Title: dependencies Pages: 1 -->
<svg width="504pt" height="211pt"
 viewBox="0.00 0.00 504.00 211.00" xmlns="http://www.w3.org/2000/svg" xmlns:xlink="http://www.w3.org/1999/xlink">
<g id="graph0" class="graph" transform="scale(1 1) rotate(0) translate(4 207)">
<title>dependencies</title>
<polygon fill="#ffffff" stroke="transparent" points="-4,4 -4,-207 500,-207 500,4 -4,4"/>
<text text-anchor="start" x="227.0091" y="-42.4" font-family="sans-serif" font-weight="bold" font-size="14.00" fill="#000000">Legend</text>
<polygon fill="#ffffb3" stroke="transparent" points="14,-10 14,-30 34,-30 34,-10 14,-10"/>
<text text-anchor="start" x="37.629" y="-15.4" font-family="sans-serif" font-size="14.00" fill="#000000"> &#160;Declarations</text>
<polygon fill="#8dd3c7" stroke="transparent" points="127,-10 127,-30 147,-30 147,-10 127,-10"/>
<text text-anchor="start" x="150.7251" y="-15.4" font-family="sans-serif" font-size="14.00" fill="#000000"> &#160;Module</text>
<polygon fill="#80b1d3" stroke="transparent" points="213,-10 213,-30 233,-30 233,-10 213,-10"/>
<text text-anchor="start" x="236.7812" y="-15.4" font-family="sans-serif" font-size="14.00" fill="#000000"> &#160;Bootstrap</text>
<polygon fill="#fdb462" stroke="transparent" points="310,-10 310,-30 330,-30 330,-10 310,-10"/>
<text text-anchor="start" x="333.6732" y="-15.4" font-family="sans-serif" font-size="14.00" fill="#000000"> &#160;Providers</text>
<polygon fill="#fb8072" stroke="transparent" points="406,-10 406,-30 426,-30 426,-10 406,-10"/>
<text text-anchor="start" x="429.7258" y="-15.4" font-family="sans-serif" font-size="14.00" fill="#000000"> &#160;Exports</text>
<g id="clust1" class="cluster">
<title>cluster_BooksModule</title>
<polygon fill="none" stroke="#000000" stroke-dasharray="1,5" points="111,-70 111,-195 385,-195 385,-70 111,-70"/>
</g>
<g id="clust3" class="cluster">
<title>cluster_BooksModule_imports</title>
<polygon fill="none" stroke="#000000" points="273,-78 273,-130 377,-130 377,-78 273,-78"/>
</g>
<g id="clust6" class="cluster">
<title>cluster_BooksModule_providers</title>
<polygon fill="none" stroke="#000000" points="119,-78 119,-130 265,-130 265,-78 119,-78"/>
</g>
<!-- AuthModule -->
<g id="node1" class="node">
<title>AuthModule</title>
<polygon fill="#8dd3c7" stroke="#000000" points="368.5482,-122 365.5482,-126 344.5482,-126 341.5482,-122 281.4518,-122 281.4518,-86 368.5482,-86 368.5482,-122"/>
<text text-anchor="middle" x="325" y="-99.8" font-family="Times,serif" font-size="14.00" fill="#000000">AuthModule</text>
</g>
<!-- BooksModule -->
<g id="node2" class="node">
<title>BooksModule</title>
<polygon fill="#8dd3c7" stroke="#000000" points="305.8316,-187 302.8316,-191 281.8316,-191 278.8316,-187 210.1684,-187 210.1684,-151 305.8316,-151 305.8316,-187"/>
<text text-anchor="middle" x="258" y="-164.8" font-family="Times,serif" font-size="14.00" fill="#000000">BooksModule</text>
</g>
<!-- AuthModule&#45;&gt;BooksModule -->
<g id="edge1" class="edge">
<title>AuthModule&#45;&gt;BooksModule</title>
<path fill="none" stroke="#000000" d="M293.446,-122.1061C293.446,-122.1061 293.446,-140.991 293.446,-140.991"/>
<polygon fill="#000000" stroke="#000000" points="289.9461,-140.9909 293.446,-150.991 296.9461,-140.991 289.9461,-140.9909"/>
</g>
<!-- BooksService -->
<g id="node3" class="node">
<title>BooksService</title>
<ellipse fill="#fdb462" stroke="#000000" cx="192" cy="-104" rx="64.8467" ry="18"/>
<text text-anchor="middle" x="192" y="-99.8" font-family="Times,serif" font-size="14.00" fill="#000000">BooksService</text>
</g>
<!-- BooksService&#45;&gt;BooksModule -->
<g id="edge2" class="edge">
<title>BooksService&#45;&gt;BooksModule</title>
<path fill="none" stroke="#000000" d="M233.5038,-118.104C233.5038,-118.104 233.5038,-140.7209 233.5038,-140.7209"/>
<polygon fill="#000000" stroke="#000000" points="230.0039,-140.7209 233.5038,-150.7209 237.0039,-140.7209 230.0039,-140.7209"/>
</g>
</g>
</svg>
