<?xml version="1.0" encoding="UTF-8" standalone="no"?>
<!DOCTYPE svg PUBLIC "-//W3C//DTD SVG 1.1//EN"
 "http://www.w3.org/Graphics/SVG/1.1/DTD/svg11.dtd">
<!-- Generated by graphviz version 2.40.1 (20161225.0304)
 -->
<!-- Title: dependencies Pages: 1 -->
<svg width="504pt" height="211pt"
 viewBox="0.00 0.00 504.00 211.00" xmlns="http://www.w3.org/2000/svg" xmlns:xlink="http://www.w3.org/1999/xlink">
<g id="graph0" class="graph" transform="scale(1 1) rotate(0) translate(4 207)">
<title>dependencies</title>
<polygon fill="#ffffff" stroke="transparent" points="-4,4 -4,-207 500,-207 500,4 -4,4"/>
<text text-anchor="start" x="227.0091" y="-42.4" font-family="sans-serif" font-weight="bold" font-size="14.00" fill="#000000">Legend</text>
<polygon fill="#ffffb3" stroke="transparent" points="14,-10 14,-30 34,-30 34,-10 14,-10"/>
<text text-anchor="start" x="37.629" y="-15.4" font-family="sans-serif" font-size="14.00" fill="#000000"> &#160;Declarations</text>
<polygon fill="#8dd3c7" stroke="transparent" points="127,-10 127,-30 147,-30 147,-10 127,-10"/>
<text text-anchor="start" x="150.7251" y="-15.4" font-family="sans-serif" font-size="14.00" fill="#000000"> &#160;Module</text>
<polygon fill="#80b1d3" stroke="transparent" points="213,-10 213,-30 233,-30 233,-10 213,-10"/>
<text text-anchor="start" x="236.7812" y="-15.4" font-family="sans-serif" font-size="14.00" fill="#000000"> &#160;Bootstrap</text>
<polygon fill="#fdb462" stroke="transparent" points="310,-10 310,-30 330,-30 330,-10 310,-10"/>
<text text-anchor="start" x="333.6732" y="-15.4" font-family="sans-serif" font-size="14.00" fill="#000000"> &#160;Providers</text>
<polygon fill="#fb8072" stroke="transparent" points="406,-10 406,-30 426,-30 426,-10 406,-10"/>
<text text-anchor="start" x="429.7258" y="-15.4" font-family="sans-serif" font-size="14.00" fill="#000000"> &#160;Exports</text>
<g id="clust1" class="cluster">
<title>cluster_BooksModule</title>
<polygon fill="none" stroke="#000000" stroke-dasharray="1,5" points="42.5,-70 42.5,-195 453.5,-195 453.5,-70 42.5,-70"/>
</g>
<g id="clust3" class="cluster">
<title>cluster_BooksModule_imports</title>
<polygon fill="none" stroke="#000000" points="204.5,-78 204.5,-130 445.5,-130 445.5,-78 204.5,-78"/>
</g>
<g id="clust6" class="cluster">
<title>cluster_BooksModule_providers</title>
<polygon fill="none" stroke="#000000" points="50.5,-78 50.5,-130 196.5,-130 196.5,-78 50.5,-78"/>
</g>
<!-- AuthModule -->
<g id="node1" class="node">
<title>AuthModule</title>
<polygon fill="#8dd3c7" stroke="#000000" points="437.0482,-122 434.0482,-126 413.0482,-126 410.0482,-122 349.9518,-122 349.9518,-86 437.0482,-86 437.0482,-122"/>
<text text-anchor="middle" x="393.5" y="-99.8" font-family="Times,serif" font-size="14.00" fill="#000000">AuthModule</text>
</g>
<!-- BooksModule -->
<g id="node3" class="node">
<title>BooksModule</title>
<polygon fill="#8dd3c7" stroke="#000000" points="320.3316,-187 317.3316,-191 296.3316,-191 293.3316,-187 224.6684,-187 224.6684,-151 320.3316,-151 320.3316,-187"/>
<text text-anchor="middle" x="272.5" y="-164.8" font-family="Times,serif" font-size="14.00" fill="#000000">BooksModule</text>
</g>
<!-- AuthModule&#45;&gt;BooksModule -->
<g id="edge1" class="edge">
<title>AuthModule&#45;&gt;BooksModule</title>
<path fill="none" stroke="#000000" d="M393.5,-122.1061C393.5,-141.3391 393.5,-169 393.5,-169 393.5,-169 330.3224,-169 330.3224,-169"/>
<polygon fill="#000000" stroke="#000000" points="330.3224,-165.5001 320.3224,-169 330.3224,-172.5001 330.3224,-165.5001"/>
</g>
<!-- MyLoggerModule -->
<g id="node2" class="node">
<title>MyLoggerModule</title>
<polygon fill="#8dd3c7" stroke="#000000" points="332.4229,-122 329.4229,-126 308.4229,-126 305.4229,-122 212.5771,-122 212.5771,-86 332.4229,-86 332.4229,-122"/>
<text text-anchor="middle" x="272.5" y="-99.8" font-family="Times,serif" font-size="14.00" fill="#000000">MyLoggerModule</text>
</g>
<!-- MyLoggerModule&#45;&gt;BooksModule -->
<g id="edge2" class="edge">
<title>MyLoggerModule&#45;&gt;BooksModule</title>
<path fill="none" stroke="#000000" d="M272.5,-122.1061C272.5,-122.1061 272.5,-140.991 272.5,-140.991"/>
<polygon fill="#000000" stroke="#000000" points="269.0001,-140.9909 272.5,-150.991 276.0001,-140.991 269.0001,-140.9909"/>
</g>
<!-- BooksService -->
<g id="node4" class="node">
<title>BooksService</title>
<ellipse fill="#fdb462" stroke="#000000" cx="123.5" cy="-104" rx="64.8467" ry="18"/>
<text text-anchor="middle" x="123.5" y="-99.8" font-family="Times,serif" font-size="14.00" fill="#000000">BooksService</text>
</g>
<!-- BooksService&#45;&gt;BooksModule -->
<g id="edge3" class="edge">
<title>BooksService&#45;&gt;BooksModule</title>
<path fill="none" stroke="#000000" d="M123.5,-122.1061C123.5,-141.3391 123.5,-169 123.5,-169 123.5,-169 214.5353,-169 214.5353,-169"/>
<polygon fill="#000000" stroke="#000000" points="214.5353,-172.5001 224.5353,-169 214.5353,-165.5001 214.5353,-172.5001"/>
</g>
</g>
</svg>
